<svg xmlns="http://www.w3.org/2000/svg" width="152.481" height="54" viewBox="0 0 152.481 54"><path d="M71.219,47.353l-5.763-8.025v12.84H59.73V29.774h5.435l6.128,9.119,6.165-9.119h5.4v22.4H77.094V39.331l-5.726,8.024h-.149Zm23.259-4.486a7.123,7.123,0,0,0-3.576-.913c-3.538,0-6.31,2.043-6.31,5.217,0,3.465,2.772,5.288,6.019,5.288a6.229,6.229,0,0,0,3.867-1.13v.839h5.508V42.027c0-4.34-2.772-6.639-7.625-6.639a13.085,13.085,0,0,0-5.872,1.277v4.6a9.041,9.041,0,0,1,4.486-1.168c2.334,0,3.5.911,3.5,2.188Zm0,4.706a2.612,2.612,0,0,1-2.3,1.095c-1.13,0-2.261-.473-2.261-1.606,0-1.095,1.131-1.568,2.261-1.568a2.555,2.555,0,0,1,2.3,1.131Zm15.2-7.367h3.209V35.755h-3.209V31.233h-5.691v4.522h-2.845v4.451h2.845V52.17h5.691Zm16-4.524a3.571,3.571,0,0,0-1.568-.291,4.476,4.476,0,0,0-3.721,1.823V35.755H114.67V52.168H120.4v-9.63c.292-1.166,1.351-1.861,2.919-1.861a4.941,4.941,0,0,1,2.37.511Zm7.554.073h-5.726V52.168h5.726Zm18.987,0h-5.91l-2.59,3.94-2.553-3.94h-6.166l5.472,8.06-5.726,8.353h5.909L143.47,47.9l2.809,4.269h6.2l-5.764-8.389ZM59.73,1.828v22.4H75.743v-5.07H65.493V15.287h9.375V10.363H65.493V6.86h10.25V1.828Zm28.65,22.4L94.654,7.811H89.037l-3.065,9.41-3.136-9.41H77l6.237,16.413Zm21.67-6.894V15.653c0-4.888-2.59-8.207-7.7-8.207-4.522,0-7.951,3.538-7.951,8.682,0,5.288,3.576,8.462,8.826,8.462a9.66,9.66,0,0,0,5.655-1.459V18.789a8.435,8.435,0,0,1-4.742,1.313c-2.117,0-3.72-.8-4.2-2.772Zm-10.032-3.209c.4-1.495,1.313-2.334,2.554-2.334a2.332,2.332,0,0,1,2.37,2.334Zm31.942,15.9,8.463-22.214h-5.691l-3.065,9.337-3.136-9.337h-5.945l6.128,16.013-2.407,6.2ZM120.6,7.486a4.42,4.42,0,0,0-3.063,1.782V7.809h-5.725V24.222h5.725v-9.63c.292-1.168,1.351-1.861,2.919-1.861a4.936,4.936,0,0,1,2.357.5ZM27,0A27,27,0,1,1,0,27,27,27,0,0,1,27,0ZM18.636,48.883c4.149-2.047,4.363-10.1.475-17.981S8.707,18.287,4.558,20.332s-4.363,10.1-.475,17.981S14.487,50.931,18.636,48.883Zm-7.773-38.4c0,5.073,7.225,9.186,16.137,9.186s16.137-4.114,16.137-9.186S35.912,1.3,27,1.3,10.863,5.41,10.863,10.482ZM30.944,49.04c4.428,3.109,12.1-.195,17.146-7.377S53.632,26.14,49.2,23.031s-12.1.195-17.146,7.378S26.516,45.932,30.944,49.04ZM29.973,12l-.226-3.249,5.146,2.971,3.691-2.131L28.256,3.626l-3.5,2.018.582,3.722-6.427-.348-3.5,2.018L25.746,17l3.689-2.131L24.289,11.9l5.606.142Z"/></svg>