<svg xmlns="http://www.w3.org/2000/svg" xmlns:xlink="http://www.w3.org/1999/xlink" width="275.761" height="328" viewBox="0 0 275.761 328"><defs><style>.a{fill:#fff;}.b{filter:url(#a);}</style><filter id="a" x="0" y="0" width="275.761" height="328" filterUnits="userSpaceOnUse"><feOffset dy="3" input="SourceAlpha"/><feGaussianBlur stdDeviation="3" result="b"/><feFlood flood-opacity="0.161"/><feComposite operator="in" in2="b"/><feComposite in="SourceGraphic"/></filter></defs><g class="b" transform="matrix(1, 0, 0, 1, 0, 0)"><path class="a" d="M3504.634,1391.455v310H3404.486c.007-.254.007-.5.007-.755a30.09,30.09,0,1,0-60.18,0c0,.254,0,.5.007.755h-97.448v-310h3v.007a5.145,5.145,0,1,0,10.291,0v-.007h4.8v.007a5.144,5.144,0,1,0,10.288,0v-.007h4.792v.007a5.148,5.148,0,0,0,10.3,0v-.007h4.771v.007a5.153,5.153,0,0,0,5.149,5.148h.02a5.153,5.153,0,0,0,5.148-5.148v-.007h4.769v.007a5.149,5.149,0,0,0,10.3,0v-.007h4.792v.007a5.145,5.145,0,1,0,10.289,0v-.007h4.791v.007a5.149,5.149,0,0,0,10.3,0v-.007h4.79v.007a5.149,5.149,0,0,0,10.3,0v-.007h4.791v.007a5.149,5.149,0,0,0,5.149,5.148h.013a5.149,5.149,0,0,0,5.149-5.148v-.007h4.79v.007a5.148,5.148,0,0,0,10.3,0v-.007h4.792v.007a5.145,5.145,0,1,0,10.29,0v-.007h4.791v.007a5.149,5.149,0,0,0,10.3,0v-.007h4.791v.007a5.148,5.148,0,0,0,10.3,0v-.007h4.772v.007a5.149,5.149,0,0,0,5.148,5.148h.02a5.154,5.154,0,0,0,5.148-5.148v-.007h4.77v.007a5.145,5.145,0,1,0,10.291,0v-.007h4.8v.007a5.145,5.145,0,1,0,10.29,0v-.007h4.792v.007a5.149,5.149,0,0,0,10.3,0v-.007Z" transform="translate(-3237.87 -1385.45)"/></g></svg>