<svg xmlns="http://www.w3.org/2000/svg" width="31" height="30.998" viewBox="0 0 31 30.998"><defs><style>.a{fill:#4b286d;fill-rule:evenodd;}</style></defs><g transform="translate(-0.264 -288.8)"><path class="a" d="M20.359.274a3.109,3.109,0,0,0-1.768.412L5.014,8.524H3.37a3.125,3.125,0,0,0-3.106,3.1V28.16a3.125,3.125,0,0,0,3.106,3.1H5.436a1.034,1.034,0,1,0,0-2.067H3.37A1.018,1.018,0,0,1,2.33,28.16V11.628A1.018,1.018,0,0,1,3.37,10.591h24.8A1.016,1.016,0,0,1,29.2,11.628v3.1H26.1a3.116,3.116,0,0,0-3.1,3.1V21.96a3.116,3.116,0,0,0,3.1,3.1h3.1v3.1A1.016,1.016,0,0,1,28.168,29.2H9.57a1.034,1.034,0,1,0,0,2.067h18.6a3.116,3.116,0,0,0,3.1-3.1V11.628a3.116,3.116,0,0,0-3.1-3.1H26.7l-3.871-6.7A3.1,3.1,0,0,0,20.359.274Zm-.145,2.063a1.021,1.021,0,0,1,.823.517l3.274,5.671H9.146L19.624,2.474A1.017,1.017,0,0,1,20.214,2.336ZM26.1,16.793h3.1v6.2H26.1a1.009,1.009,0,0,1-1.033-1.033V17.826A1.009,1.009,0,0,1,26.1,16.793Z" transform="translate(0 288.533)"/></g></svg>